# xmcd
#
# Track frame offsets: 
#        150
#        26075
#        40363
#        59185
#        81593
#        98868
#        110808
#        127860
#        139370
#        155205
#        173495
#        186853
#        205505
#        225790
#        240528
#        253238
#        270560
#        281620
#        303463
#        325245
#        339680
#
# Disc length: 4698 seconds
#
# Revision: 1
# Processed by: cddbd v1.5.2PL0 Copyright (c) Steve Scherf et al.
# Submitted via: ExactAudioCopy v0.99pb5
#
DISCID=3a125815
DTITLE=Werner Pöhlert Combo - Way out
DYEAR=1992
DGENRE=Jazz
TTITLE0=Like Someone In Love
TTITLE1=Blue Moon
TTITLE2=There Will Never Be Another You
TTITLE3=Have You Met Miss Jones
TTITLE4=Misty
TTITLE5=Corcovado
TTITLE6=Look For The Silver Lining (In memoriam Chet Baker)
TTITLE7=I Like To Recognize The Tune
TTITLE8=Rainy Hours
TTITLE9=The Girl From Ipanema
TTITLE10=Again
TTITLE11=Stella By Stairlight (In memoriam Stan Getz)
TTITLE12=Night And Day
TTITLE13=Way Out
TTITLE14=Shortly
TTITLE15=Route 66
TTITLE16=With The Wind And The Rain
TTITLE17=Line For Lions I
TTITLE18=Line For Lions II
TTITLE19=I Remember You
TTITLE20=Marionette
EXTD=
EXTT0=
EXTT1=
EXTT2=
EXTT3=
EXTT4=
EXTT5=
EXTT6=
EXTT7=
EXTT8=
EXTT9=
EXTT10=
EXTT11=
EXTT12=
EXTT13=
EXTT14=
EXTT15=
EXTT16=
EXTT17=
EXTT18=
EXTT19=
EXTT20=
PLAYORDER=
